<?xml version="1.0" encoding="UTF-8"?>
<svg xmlns="http://www.w3.org/2000/svg" width="70" height="70" viewBox="0 0 70 70" fill="none">
  <path d="M35.0719 13.6726C29.7931 13.6351 25.4699 17.8938 25.43 23.171C25.3902 28.448 29.6512 32.7732 34.9284 32.813C34.9529 32.8131 34.9772 32.8133 35.0017 32.8133C40.2452 32.8133 44.5307 28.5673 44.5704 23.3146C44.6101 18.0379 40.3493 13.7124 35.0719 13.6726ZM35.0014 30.079C34.9842 30.079 34.9661 30.0789 34.9489 30.0788C31.1794 30.0503 28.1358 26.9607 28.1642 23.1915C28.1925 19.4393 31.2534 16.4066 34.9989 16.4066C35.0162 16.4066 35.0342 16.4067 35.0514 16.4069C38.8209 16.4353 41.8645 19.5249 41.8361 23.2941C41.8077 27.0463 38.7469 30.079 35.0014 30.079Z" fill="#0088CC"></path>
  <path d="M43.3892 51.4668C52.4828 39.7616 58.1658 33.6578 58.2425 23.417C58.3388 10.5322 47.8822 0 34.9984 0C22.2649 0 11.8554 10.3124 11.7586 23.0683C11.6804 33.5868 17.4689 39.6823 26.6253 51.4649C17.5164 52.826 11.7586 56.2463 11.7586 60.4298C11.7586 63.2321 14.3489 65.7468 19.0524 67.5105C23.3335 69.1158 28.9974 70 35.0006 70C41.0037 70 46.6676 69.1158 50.9487 67.5105C55.6522 65.7467 58.2425 63.232 58.2425 60.4297C58.2425 56.2485 52.4901 52.829 43.3892 51.4668ZM14.4928 23.089C14.5782 11.833 23.7623 2.73438 34.9986 2.73438C46.3681 2.73438 55.593 12.0296 55.5083 23.3966C55.4355 33.122 49.4087 39.1153 39.7868 51.6583C38.0706 53.8945 36.4945 56.0087 35.0026 58.0769C33.5151 56.0075 31.9704 53.9311 30.2285 51.6575C20.2089 38.5894 14.4187 33.049 14.4928 23.089ZM35.0006 67.2658C23.2631 67.2658 14.4928 63.6568 14.4928 60.4298C14.4928 58.0367 19.7357 55.0135 28.5511 53.9667C30.4998 56.5235 32.2082 58.8463 33.8838 61.2187C34.1398 61.581 34.5557 61.7967 34.9993 61.797C34.9997 61.797 35.0001 61.797 35.0006 61.797C35.4438 61.797 35.8596 61.5821 36.1159 61.2205C37.7757 58.879 39.5309 56.4989 41.4629 53.9682C50.27 55.0161 55.5083 58.0383 55.5083 60.4299C55.5081 63.6568 46.738 67.2658 35.0006 67.2658Z" fill="#0088CC"></path>
</svg>
