<?xml version="1.0" encoding="UTF-8"?>
<svg xmlns="http://www.w3.org/2000/svg" width="70" height="70" viewBox="0 0 70 70" fill="none">
  <path d="M21.2182 15.9844H15.9727C15.6826 15.9844 15.4044 15.8691 15.1993 15.664C14.9941 15.4589 14.8789 15.1807 14.8789 14.8906C14.8789 14.6005 14.9941 14.3223 15.1993 14.1172C15.4044 13.9121 15.6826 13.7969 15.9727 13.7969H21.2182C21.5083 13.7969 21.7865 13.9121 21.9916 14.1172C22.1967 14.3223 22.3119 14.6005 22.3119 14.8906C22.3119 15.1807 22.1967 15.4589 21.9916 15.664C21.7865 15.8691 21.5083 15.9844 21.2182 15.9844Z" fill="#0088CC"></path>
  <path d="M18.5955 55.6596C18.0427 55.6595 17.5023 55.4955 17.0427 55.1884C16.5831 54.8812 16.2249 54.4447 16.0134 53.9339C15.8019 53.4232 15.7466 52.8612 15.8545 52.319C15.9624 51.7769 16.2287 51.2789 16.6196 50.888C17.0105 50.4972 17.5086 50.231 18.0508 50.1232C18.5929 50.0154 19.1549 50.0708 19.6656 50.2824C20.1763 50.494 20.6128 50.8523 20.9199 51.312C21.2269 51.7716 21.3908 52.312 21.3908 52.8648C21.3898 53.6058 21.095 54.3162 20.571 54.8401C20.0469 55.3641 19.3365 55.6588 18.5955 55.6596ZM18.5955 52.2571C18.4754 52.2571 18.358 52.2928 18.2581 52.3596C18.1582 52.4263 18.0804 52.5212 18.0345 52.6322C17.9885 52.7432 17.9765 52.8653 18 52.9831C18.0234 53.101 18.0813 53.2092 18.1662 53.2941C18.2511 53.3791 18.3594 53.4369 18.4772 53.4604C18.595 53.4838 18.7171 53.4718 18.8281 53.4259C18.9391 53.3799 19.034 53.3021 19.1008 53.2022C19.1675 53.1024 19.2032 52.985 19.2033 52.8648C19.2031 52.7037 19.139 52.5492 19.0251 52.4353C18.9111 52.3214 18.7566 52.2573 18.5955 52.2571Z" fill="#0088CC"></path>
  <path d="M54.0307 15.9844H48.7852C48.4951 15.9844 48.2169 15.8691 48.0118 15.664C47.8066 15.4589 47.6914 15.1807 47.6914 14.8906C47.6914 14.6005 47.8066 14.3223 48.0118 14.1172C48.2169 13.9121 48.4951 13.7969 48.7852 13.7969H54.0307C54.3208 13.7969 54.599 13.9121 54.8041 14.1172C55.0092 14.3223 55.1244 14.6005 55.1244 14.8906C55.1244 15.1807 55.0092 15.4589 54.8041 15.664C54.599 15.8691 54.3208 15.9844 54.0307 15.9844Z" fill="#0088CC"></path>
  <path d="M56.0871 20H46.9129C46.4056 20 45.919 19.842 45.5603 19.5607C45.2015 19.2794 45 18.8978 45 18.5C45 18.1022 45.2015 17.7206 45.5603 17.4393C45.919 17.158 46.4056 17 46.9129 17H56.0871C56.5944 17 57.081 17.158 57.4397 17.4393C57.7985 17.7206 58 18.1022 58 18.5C58 18.8978 57.7985 19.2794 57.4397 19.5607C57.081 19.842 56.5944 20 56.0871 20Z" fill="#0088CC"></path>
  <path d="M51.408 55.6596C50.8552 55.6595 50.3148 55.4955 49.8552 55.1884C49.3956 54.8812 49.0374 54.4447 48.8259 53.9339C48.6144 53.4232 48.5591 52.8612 48.667 52.319C48.7749 51.7769 49.0412 51.2789 49.4321 50.888C49.823 50.4972 50.3211 50.231 50.8633 50.1232C51.4054 50.0154 51.9674 50.0708 52.4781 50.2824C52.9888 50.494 53.4253 50.8523 53.7324 51.312C54.0394 51.7716 54.2033 52.312 54.2033 52.8648C54.2023 53.6058 53.9075 54.3162 53.3835 54.8401C52.8594 55.3641 52.149 55.6588 51.408 55.6596ZM51.408 52.2571C51.2879 52.2571 51.1705 52.2928 51.0706 52.3596C50.9707 52.4263 50.8929 52.5212 50.847 52.6322C50.801 52.7432 50.789 52.8653 50.8125 52.9831C50.8359 53.101 50.8938 53.2092 50.9787 53.2941C51.0636 53.3791 51.1719 53.4369 51.2897 53.4604C51.4075 53.4838 51.5296 53.4718 51.6406 53.4259C51.7516 53.3799 51.8465 53.3021 51.9133 53.2022C51.98 53.1024 52.0157 52.985 52.0158 52.8648C52.0156 52.7037 51.9515 52.5492 51.8376 52.4353C51.7236 52.3214 51.5691 52.2573 51.408 52.2571Z" fill="#0088CC"></path>
  <path d="M61.8999 10.2993H40.9157C39.9303 10.3005 38.9856 10.6925 38.2888 11.3893C37.5921 12.0862 37.2002 13.0309 37.1992 14.0164V26.5323L32.8039 26.5306V14.0164C32.8028 13.031 32.411 12.0862 31.7142 11.3894C31.0175 10.6925 30.0728 10.3005 29.0874 10.2993H8.10323C7.11781 10.3005 6.17311 10.6925 5.47636 11.3893C4.77962 12.0862 4.38775 13.0309 4.38672 14.0164V55.9837C4.38775 56.9691 4.77963 57.9139 5.47638 58.6107C6.17314 59.3076 7.11786 59.6996 8.10328 59.7007H29.0874C30.0728 59.6995 31.0175 59.3075 31.7143 58.6107C32.411 57.9139 32.8029 56.9691 32.8039 55.9837V43.4677L37.1992 43.4694V55.9837C37.2002 56.9691 37.5921 57.9139 38.2889 58.6107C38.9856 59.3076 39.9304 59.6996 40.9158 59.7007H61.8999C62.8853 59.6996 63.8301 59.3076 64.5268 58.6107C65.2236 57.9139 65.6154 56.9691 65.6165 55.9837V14.0164C65.6154 13.0309 65.2236 12.0862 64.5268 11.3893C63.8301 10.6925 62.8853 10.3005 61.8999 10.2993ZM48.4064 41.2864L27.372 41.2779V38.5574L48.4059 38.5649C48.696 38.5648 48.9741 38.4495 49.1792 38.2444C49.3843 38.0393 49.4996 37.7612 49.4997 37.4711V36.717L53.284 39.9219L49.4997 43.1268V42.3802C49.4997 42.2366 49.4715 42.0943 49.4166 41.9617C49.3617 41.829 49.2811 41.7084 49.1796 41.6068C49.0781 41.5053 48.9576 41.4247 48.8249 41.3697C48.6922 41.3147 48.55 41.2864 48.4064 41.2864ZM32.8039 36.3719V33.6266L37.1992 33.6282V36.3735L32.8039 36.3719ZM21.5978 31.4352C21.3077 31.4353 21.0291 31.5505 20.824 31.7556C20.6189 31.9607 20.5036 32.2389 20.5035 32.5289V33.283L16.7192 30.0781L20.5036 26.8733V27.6199C20.5035 27.7635 20.5317 27.9057 20.5866 28.0384C20.6416 28.1711 20.7221 28.2916 20.8236 28.3932C20.9251 28.4948 21.0456 28.5753 21.1783 28.6303C21.311 28.6853 21.4532 28.7136 21.5968 28.7136L42.6312 28.7222V31.4427L21.5978 31.4352ZM30.6164 55.9837C30.616 56.3891 30.4548 56.7779 30.1682 57.0646C29.8816 57.3514 29.4929 57.5127 29.0874 57.5132H8.10323C7.69777 57.5127 7.30909 57.3514 7.02244 57.0646C6.73579 56.7779 6.57459 56.3891 6.57422 55.9837V14.0164C6.57459 13.6109 6.73579 13.2222 7.02244 12.9354C7.30909 12.6487 7.69777 12.4873 8.10323 12.4868H29.0874C29.4929 12.4873 29.8816 12.6487 30.1682 12.9354C30.4548 13.2222 30.616 13.6109 30.6164 14.0164V26.5297L22.691 26.5267V25.5595C22.7054 25.2526 22.6281 24.9483 22.4689 24.6856C22.3097 24.4228 22.0758 24.2134 21.7971 24.0841C21.5184 23.9548 21.2075 23.9114 20.9041 23.9595C20.6006 24.0076 20.3184 24.145 20.0934 24.3542L14.7896 28.8456C14.7597 28.8712 14.7309 28.8985 14.7031 28.9273C14.4084 29.238 14.2441 29.6499 14.2441 30.0782C14.2441 30.5065 14.4084 30.9184 14.7031 31.2291C14.7309 31.2579 14.7597 31.2852 14.7896 31.3108L20.0934 35.8022C20.3184 36.0115 20.6006 36.149 20.9041 36.1971C21.2076 36.2453 21.5186 36.2019 21.7973 36.0726C22.076 35.9432 22.3099 35.7338 22.4691 35.4709C22.6283 35.2081 22.7055 34.9038 22.691 34.5969V33.6233L30.6164 33.6259V36.3713L26.8251 36.37C26.3902 36.3705 25.9731 36.5435 25.6656 36.851C25.358 37.1586 25.185 37.5756 25.1845 38.0106V41.8249C25.185 42.2597 25.3579 42.6767 25.6654 42.9843C25.9728 43.2918 26.3897 43.4649 26.8246 43.4655L30.6164 43.4669V55.9837ZM63.4289 55.9837C63.4285 56.3891 63.2673 56.7779 62.9807 57.0646C62.694 57.3514 62.3053 57.5127 61.8999 57.5132H40.9157C40.5103 57.5127 40.1216 57.3514 39.8349 57.0646C39.5482 56.7779 39.387 56.3891 39.3867 55.9837V43.4703L47.3121 43.4734V44.4406C47.2975 44.7475 47.3747 45.0519 47.5338 45.3148C47.693 45.5777 47.9269 45.7872 48.2057 45.9166C48.4844 46.0459 48.7954 46.0893 49.099 46.0411C49.4025 45.9929 49.6848 45.8553 49.9097 45.6459L55.2135 41.1545C55.2434 41.1289 55.2722 41.1017 55.3 41.0728C55.5947 40.7621 55.759 40.3502 55.759 39.9219C55.759 39.4937 55.5947 39.0818 55.3 38.7711C55.2723 38.7422 55.2434 38.715 55.2135 38.6893L49.9098 34.1979C49.6848 33.9886 49.4025 33.8512 49.099 33.8031C48.7956 33.7549 48.4846 33.7983 48.2059 33.9276C47.9272 34.057 47.6933 34.2664 47.5341 34.5292C47.3749 34.792 47.2976 35.0963 47.3121 35.4032V36.3768L39.3867 36.3742V33.6289L43.178 33.6302C43.613 33.6297 44.03 33.4567 44.3376 33.1491C44.6451 32.8415 44.8181 32.4245 44.8186 31.9895V28.1753C44.8182 27.7404 44.6452 27.3234 44.3378 27.0159C44.0303 26.7083 43.6134 26.5353 43.1785 26.5347L39.3867 26.5332V14.0163C39.3871 13.6109 39.5483 13.2221 39.835 12.9354C40.1216 12.6486 40.5103 12.4873 40.9158 12.4868H61.8999C62.3054 12.4873 62.6941 12.6486 62.9807 12.9354C63.2674 13.2221 63.4286 13.6109 63.429 14.0163L63.4289 55.9837Z" fill="#0088CC"></path>
</svg>
